# xmcd
# Track frame offsets: 
#        150
#        22107
#        40902
#        61130
#        80367
#        103097
#        126510
#        153187
#        174800
#        191927
#        213632
#        230295
# Disc length: 3555 seconds
# Revision: 0
# Processed by: cddbd v1.4b41PL1 Copyright (c) Steve Scherf et al.
# Submitted via: ExactAudioCopy v0.90a7
#
DISCID=9f0de10c
DTITLE=Diana Ross - Every Day Is A New Day
DYEAR=1900
DGENRE=
TTITLE0=He Lives In You
TTITLE1=Love Is All That Matters
TTITLE2=Until We Meet Again
TTITLE3=Got To Be Free
TTITLE4=Not Over You Yet
TTITLE5=So They Say
TTITLE6=Every Day Is A New Day
TTITLE7=Sugarfree
TTITLE8=Someone That You Loved Before
TTITLE9=Hope Is An Open Window
TTITLE10=Carry On (Remix)
TTITLE11=Until We Meet Again (Hex Hector Remix)
EXTD=
EXTT0=
EXTT1=
EXTT2=
EXTT3=
EXTT4=
EXTT5=
EXTT6=
EXTT7=
EXTT8=
EXTT9=
EXTT10=
EXTT11=
PLAYORDER=
